<?xml version="1.0" encoding="utf-8"?>
<!-- Generator: Adobe Illustrator 15.0.0, SVG Export Plug-In . SVG Version: 6.00 Build 0)  -->
<!DOCTYPE svg PUBLIC "-//W3C//DTD SVG 1.1//EN" "http://www.w3.org/Graphics/SVG/1.1/DTD/svg11.dtd">
<svg version="1.1" id="Layer_1" xmlns="http://www.w3.org/2000/svg" xmlns:xlink="http://www.w3.org/1999/xlink" x="0px" y="0px"
	 width="2058.206px" height="666.066px" viewBox="0 0 2058.206 666.066" enable-background="new 0 0 2058.206 666.066"
	 xml:space="preserve">
<g>
	<rect x="42.744" y="80.644" fill="#FFFFFF" stroke="#000000" stroke-miterlimit="10" width="375" height="483"/>
	<line fill="none" stroke="#65E0D1" stroke-miterlimit="10" x1="43.244" y1="322.644" x2="418.244" y2="322.644"/>
</g>
<g>
	<rect x="1639.744" y="80.644" fill="#FFFFFF" stroke="#000000" stroke-miterlimit="10" width="375" height="483"/>
	<line fill="none" stroke="#65E0D1" stroke-miterlimit="10" x1="1641.244" y1="161.644" x2="2016.244" y2="161.644"/>
	<line fill="none" stroke="#65E0D1" stroke-miterlimit="10" x1="1639.244" y1="241.644" x2="2014.244" y2="241.644"/>
	<line fill="none" stroke="#65E0D1" stroke-miterlimit="10" x1="1639.244" y1="321.644" x2="2014.244" y2="321.644"/>
	<line fill="none" stroke="#65E0D1" stroke-miterlimit="10" x1="1639.244" y1="402.644" x2="2014.244" y2="402.644"/>
	<line fill="none" stroke="#65E0D1" stroke-miterlimit="10" x1="1639.244" y1="482.644" x2="2014.244" y2="482.644"/>
	<line fill="none" stroke="#65E0D1" stroke-miterlimit="10" x1="1702.744" y1="563.144" x2="1702.744" y2="82.144"/>
	<line fill="none" stroke="#65E0D1" stroke-miterlimit="10" x1="1765.744" y1="563.144" x2="1765.744" y2="82.144"/>
	<line fill="none" stroke="#65E0D1" stroke-miterlimit="10" x1="1828.744" y1="563.144" x2="1828.744" y2="82.144"/>
	<line fill="none" stroke="#65E0D1" stroke-miterlimit="10" x1="1890.744" y1="563.144" x2="1890.744" y2="82.144"/>
	<line fill="none" stroke="#65E0D1" stroke-miterlimit="10" x1="1953.744" y1="563.144" x2="1953.744" y2="82.144"/>
</g>
<g>
	<rect x="1240.744" y="81.644" fill="#FFFFFF" stroke="#000000" stroke-miterlimit="10" width="375" height="483"/>
	<line fill="none" stroke="#65E0D1" stroke-miterlimit="10" x1="1240.244" y1="177.644" x2="1615.244" y2="177.644"/>
	<line fill="none" stroke="#65E0D1" stroke-miterlimit="10" x1="1314.744" y1="563.144" x2="1314.744" y2="82.144"/>
	<line fill="none" stroke="#65E0D1" stroke-miterlimit="10" x1="1390.744" y1="563.144" x2="1390.744" y2="82.144"/>
	<line fill="none" stroke="#65E0D1" stroke-miterlimit="10" x1="1465.744" y1="564.144" x2="1465.744" y2="83.144"/>
	<line fill="none" stroke="#65E0D1" stroke-miterlimit="10" x1="1539.744" y1="563.144" x2="1539.744" y2="82.144"/>
	<line fill="none" stroke="#65E0D1" stroke-miterlimit="10" x1="1240.244" y1="275.644" x2="1615.244" y2="275.644"/>
	<line fill="none" stroke="#65E0D1" stroke-miterlimit="10" x1="1240.244" y1="371.644" x2="1615.244" y2="371.644"/>
	<line fill="none" stroke="#65E0D1" stroke-miterlimit="10" x1="1240.244" y1="467.644" x2="1615.244" y2="467.644"/>
</g>
<g>
	<rect x="841.744" y="81.644" fill="#FFFFFF" stroke="#000000" stroke-miterlimit="10" width="375" height="483"/>
	<line fill="none" stroke="#65E0D1" stroke-miterlimit="10" x1="841.244" y1="403.644" x2="1216.244" y2="403.644"/>
	<line fill="none" stroke="#65E0D1" stroke-miterlimit="10" x1="841.244" y1="242.644" x2="1216.244" y2="242.644"/>
	<line fill="none" stroke="#65E0D1" stroke-miterlimit="10" x1="965.744" y1="82.144" x2="965.744" y2="563.144"/>
	<line fill="none" stroke="#65E0D1" stroke-miterlimit="10" x1="1091.744" y1="82.144" x2="1091.744" y2="563.144"/>
</g>
<g>
	<rect x="442.744" y="80.644" fill="#FFFFFF" stroke="#000000" stroke-miterlimit="10" width="375" height="483"/>
	<line fill="none" stroke="#65E0D1" stroke-miterlimit="10" x1="442.244" y1="322.644" x2="817.244" y2="322.644"/>
	<line fill="none" stroke="#65E0D1" stroke-miterlimit="10" x1="629.744" y1="562.144" x2="629.744" y2="81.144"/>
</g>
</svg>
