<?xml version="1.0" encoding="utf-8"?>
<!-- Generator: Adobe Illustrator 15.0.0, SVG Export Plug-In . SVG Version: 6.00 Build 0)  -->
<!DOCTYPE svg PUBLIC "-//W3C//DTD SVG 1.1//EN" "http://www.w3.org/Graphics/SVG/1.1/DTD/svg11.dtd">
<svg version="1.1" id="Layer_1" xmlns="http://www.w3.org/2000/svg" xmlns:xlink="http://www.w3.org/1999/xlink" x="0px" y="0px"
	 width="426.086px" height="551.449px" viewBox="0 0 426.086 551.449" enable-background="new 0 0 426.086 551.449"
	 xml:space="preserve">
<rect x="-890" y="194" fill="#FFA73E" width="375" height="322"/>
<rect x="-890" y="33" fill="#DBDBDB" width="375" height="161"/>
<g display="none">
	<rect x="-432.5" y="32.5" display="inline" fill="#FFFFFF" stroke="#000000" stroke-miterlimit="10" width="375" height="483"/>
	<line display="inline" fill="none" stroke="#65E0D1" stroke-miterlimit="10" x1="-433" y1="354.5" x2="-58" y2="354.5"/>
	<line display="inline" fill="none" stroke="#65E0D1" stroke-miterlimit="10" x1="-433" y1="193.5" x2="-58" y2="193.5"/>
	<line display="inline" fill="none" stroke="#65E0D1" stroke-miterlimit="10" x1="-308.5" y1="33" x2="-308.5" y2="514"/>
	<line display="inline" fill="none" stroke="#65E0D1" stroke-miterlimit="10" x1="-182.5" y1="33" x2="-182.5" y2="514"/>
</g>
<rect x="-433" y="275" fill="#FFA73E" width="375" height="241"/>
<rect x="-246" y="35" fill="#DBDBDB" width="188" height="241"/>
<rect x="-433" y="35" fill="#AFAFAF" width="187" height="241"/>
<rect x="25" y="173" fill="#FFBB83" width="375" height="161"/>
<rect x="25" y="90" fill="#AFAFAF" width="375" height="83"/>
<rect x="25" y="334" fill="#FFA73E" width="375" height="182"/>
<rect x="25" y="52" fill="#DBDBDB" width="375" height="38"/>
<rect x="25" y="32" fill="#EAEAEA" width="375" height="20"/>
</svg>
