<?xml version="1.0" encoding="utf-8"?>
<!-- Generator: Adobe Illustrator 15.0.0, SVG Export Plug-In . SVG Version: 6.00 Build 0)  -->
<!DOCTYPE svg PUBLIC "-//W3C//DTD SVG 1.1//EN" "http://www.w3.org/Graphics/SVG/1.1/DTD/svg11.dtd">
<svg version="1.1" id="Layer_1" xmlns="http://www.w3.org/2000/svg" xmlns:xlink="http://www.w3.org/1999/xlink" x="0px" y="0px"
	 width="426.086px" height="551.449px" viewBox="0 0 426.086 551.449" enable-background="new 0 0 426.086 551.449"
	 xml:space="preserve">
<rect x="24.304" y="193.464" fill="#FFA73E" width="375" height="322"/>
<rect x="24.304" y="32.464" fill="#DBDBDB" width="375" height="161"/>
<g display="none">
	<rect x="481.804" y="31.964" display="inline" fill="#FFFFFF" stroke="#000000" stroke-miterlimit="10" width="375" height="483"/>
	
		<line display="inline" fill="none" stroke="#65E0D1" stroke-miterlimit="10" x1="481.304" y1="353.964" x2="856.304" y2="353.964"/>
	
		<line display="inline" fill="none" stroke="#65E0D1" stroke-miterlimit="10" x1="481.304" y1="192.964" x2="856.304" y2="192.964"/>
	<line display="inline" fill="none" stroke="#65E0D1" stroke-miterlimit="10" x1="605.804" y1="32.464" x2="605.804" y2="513.464"/>
	<line display="inline" fill="none" stroke="#65E0D1" stroke-miterlimit="10" x1="731.804" y1="32.464" x2="731.804" y2="513.464"/>
</g>
<rect x="481.304" y="274.464" fill="#FFA73E" width="375" height="241"/>
<rect x="668.304" y="34.464" fill="#DBDBDB" width="188" height="241"/>
<rect x="481.304" y="34.464" fill="#AFAFAF" width="187" height="241"/>
<rect x="939.304" y="172.464" fill="#FFBB83" width="375" height="161"/>
<rect x="940.304" y="89.464" fill="#AFAFAF" width="375" height="83"/>
<rect x="939.304" y="333.464" fill="#FFA73E" width="375" height="182"/>
<rect x="939.304" y="51.464" fill="#DBDBDB" width="375" height="38"/>
<rect x="939.304" y="31.464" fill="#EAEAEA" width="375" height="20"/>
</svg>
