<?xml version="1.0" encoding="utf-8"?>
<!-- Generator: Adobe Illustrator 15.0.0, SVG Export Plug-In . SVG Version: 6.00 Build 0)  -->
<!DOCTYPE svg PUBLIC "-//W3C//DTD SVG 1.1//EN" "http://www.w3.org/Graphics/SVG/1.1/DTD/svg11.dtd">
<svg version="1.1" id="Layer_1" xmlns="http://www.w3.org/2000/svg" xmlns:xlink="http://www.w3.org/1999/xlink" x="0px" y="0px"
	 width="426.086px" height="551.449px" viewBox="0 0 426.086 551.449" enable-background="new 0 0 426.086 551.449"
	 xml:space="preserve">
<rect x="-433.914" y="194.449" fill="#FFA73E" width="375" height="322"/>
<rect x="-433.914" y="33.449" fill="#DBDBDB" width="375" height="161"/>
<g display="none">
	<rect x="23.586" y="32.949" display="inline" fill="#FFFFFF" stroke="#000000" stroke-miterlimit="10" width="375" height="483"/>
	<line display="inline" fill="none" stroke="#65E0D1" stroke-miterlimit="10" x1="23.086" y1="354.949" x2="398.086" y2="354.949"/>
	<line display="inline" fill="none" stroke="#65E0D1" stroke-miterlimit="10" x1="23.086" y1="193.949" x2="398.086" y2="193.949"/>
	<line display="inline" fill="none" stroke="#65E0D1" stroke-miterlimit="10" x1="147.586" y1="33.449" x2="147.586" y2="514.449"/>
	<line display="inline" fill="none" stroke="#65E0D1" stroke-miterlimit="10" x1="273.586" y1="33.449" x2="273.586" y2="514.449"/>
</g>
<rect x="23.086" y="275.449" fill="#FFA73E" width="375" height="241"/>
<rect x="210.086" y="35.449" fill="#DBDBDB" width="188" height="241"/>
<rect x="23.086" y="35.449" fill="#AFAFAF" width="187" height="241"/>
<rect x="481.086" y="173.449" fill="#FFBB83" width="375" height="161"/>
<rect x="482.086" y="90.449" fill="#AFAFAF" width="375" height="83"/>
<rect x="481.086" y="334.449" fill="#FFA73E" width="375" height="182"/>
<rect x="481.086" y="52.449" fill="#DBDBDB" width="375" height="38"/>
<rect x="481.086" y="32.449" fill="#EAEAEA" width="375" height="20"/>
</svg>
